<svg xmlns="http://www.w3.org/2000/svg" viewBox="0 0 256 256" role="img" aria-label="DevTools Hub Icon">
  <defs>
    <linearGradient id="bg" x1="0" y1="0" x2="1" y2="1">
      <stop offset="0%" stop-color="#6366f1"/>
      <stop offset="100%" stop-color="#06b6d4"/>
    </linearGradient>
    <linearGradient id="tool" x1="0" y1="0" x2="1" y2="1">
      <stop offset="0%" stop-color="#e2e8f0"/>
      <stop offset="100%" stop-color="#cbd5e1"/>
    </linearGradient>
  </defs>

  <rect x="12" y="12" width="232" height="232" rx="56" fill="#020617"/>
  <rect x="20" y="20" width="216" height="216" rx="48" fill="url(#bg)" opacity="0.25"/>

  <rect x="48" y="48" width="64" height="64" rx="14" fill="#1e293b"/>
  <rect x="48" y="144" width="64" height="64" rx="14" fill="#1e293b"/>
  <rect x="144" y="48" width="64" height="64" rx="14" fill="#1e293b"/>
  <rect x="144" y="144" width="64" height="64" rx="14" fill="#1e293b"/>

  <g fill="url(#tool)">
    <path d="M160 106c-9.7 0-18.1-3.4-25.3-10.2l-20.2 20.2c3.1 4.8 4.7 10.2 4.7 16 0 8.8-3.1 16.3-9.4 22.6-6.3 6.3-13.8 9.4-22.6 9.4-2.4 0-4.7-.2-6.9-.8l17.4-17.4-12.6-12.6-17.4 17.4c-.5-2.2-.7-4.5-.7-6.8 0-8.8 3.1-16.3 9.4-22.6 6.3-6.3 13.8-9.4 22.6-9.4 5.8 0 11.2 1.6 16 4.7l20.2-20.2C128.4 89.1 125 80.7 125 71c0-1.2.1-2.3.2-3.5l15 15 12.8-12.8-15-15c1.1-.1 2.3-.2 3.5-.2 8.5 0 15.8 3 21.9 9.1 6.1 6.1 9.1 13.4 9.1 21.9s-3 15.8-9.1 21.9c-1.1 1.1-2.3 2-3.5 2.8z"/>
  </g>
</svg>
